<?xml version="1.0" encoding="UTF-8"?>
<svg width="180px" height="207px" viewBox="0 0 180 207" version="1.1" xmlns="http://www.w3.org/2000/svg" xmlns:xlink="http://www.w3.org/1999/xlink">
    <title>Fill-48-Clipped</title>
    <defs>
        <polygon id="path-1" points="0 108.720217 179.813 108.720217 179.813 0 0 0"></polygon>
        <polygon id="path-3" points="0 108.720217 179.813 108.720217 179.813 0 0 0"></polygon>
        <polygon id="path-5" points="0 108.720217 179.813 108.720217 179.813 0 0 0"></polygon>
        <polygon id="path-7" points="0 108.720217 179.813 108.720217 179.813 0 0 0"></polygon>
        <polygon id="path-9" points="0 108.720217 179.813 108.720217 179.813 0 0 0"></polygon>
        <polygon id="path-11" points="0 108.720217 179.813 108.720217 179.813 0 0 0"></polygon>
        <polygon id="path-13" points="0 108.720217 179.813 108.720217 179.813 0 0 0"></polygon>
        <polygon id="path-15" points="0 108.720217 179.813 108.720217 179.813 0 0 0"></polygon>
        <polygon id="path-17" points="0 108.720217 179.813 108.720217 179.813 0 0 0"></polygon>
        <polygon id="path-19" points="0 108.720217 179.813 108.720217 179.813 0 0 0"></polygon>
        <polygon id="path-21" points="0 108.720217 179.813 108.720217 179.813 0 0 0"></polygon>
        <polygon id="path-23" points="0 108.720217 179.813 108.720217 179.813 0 0 0"></polygon>
        <polygon id="path-25" points="0 108.720217 179.813 108.720217 179.813 0 0 0"></polygon>
        <polygon id="path-27" points="0 108.720217 179.813 108.720217 179.813 0 0 0"></polygon>
        <polygon id="path-29" points="0 108.720217 179.813 108.720217 179.813 0 0 0"></polygon>
        <polygon id="path-31" points="0 108.720217 179.813 108.720217 179.813 0 0 0"></polygon>
        <polygon id="path-33" points="0 108.720217 179.813 108.720217 179.813 0 0 0"></polygon>
        <polygon id="path-35" points="0 108.720217 179.813 108.720217 179.813 0 0 0"></polygon>
        <polygon id="path-37" points="0 108.720217 179.813 108.720217 179.813 0 0 0"></polygon>
        <polygon id="path-39" points="0 108.720217 179.813 108.720217 179.813 0 0 0"></polygon>
        <polygon id="path-41" points="0 108.720217 179.813 108.720217 179.813 0 0 0"></polygon>
        <polygon id="path-43" points="0 108.720217 179.813 108.720217 179.813 0 0 0"></polygon>
        <polygon id="path-45" points="0 108.720217 179.813 108.720217 179.813 0 0 0"></polygon>
        <polygon id="path-47" points="0 108.720217 179.813 108.720217 179.813 0 0 0"></polygon>
        <polygon id="path-49" points="0 108.720217 179.813 108.720217 179.813 0 0 0"></polygon>
        <polygon id="path-51" points="0 108.720217 179.813 108.720217 179.813 0 0 0"></polygon>
        <polygon id="path-53" points="0 108.720217 179.813 108.720217 179.813 0 0 0"></polygon>
        <polygon id="path-55" points="0 108.720217 179.813 108.720217 179.813 0 0 0"></polygon>
        <polygon id="path-57" points="0 108.720217 179.813 108.720217 179.813 0 0 0"></polygon>
        <polygon id="path-59" points="0 108.720217 179.813 108.720217 179.813 0 0 0"></polygon>
        <polygon id="path-61" points="0 108.720217 179.813 108.720217 179.813 0 0 0"></polygon>
        <polygon id="path-63" points="0 108.720217 179.813 108.720217 179.813 0 0 0"></polygon>
        <polygon id="path-65" points="0 108.720217 179.813 108.720217 179.813 0 0 0"></polygon>
        <polygon id="path-67" points="0 108.720217 179.813 108.720217 179.813 0 0 0"></polygon>
        <polygon id="path-69" points="0 108.720217 179.813 108.720217 179.813 0 0 0"></polygon>
    </defs>
    <g id="Page-1" stroke="none" stroke-width="1" fill="none" fill-rule="evenodd">
        <g id="gold_rhino_racing">
            <path d="M14.24255,111.449689 C13.15205,113.212777 10.78405,114.495662 7.51305,114.495662 C2.81105,114.495662 5e-05,112.100173 5e-05,108.14704 C5e-05,104.193404 2.81105,101.796911 7.47905,101.796911 C10.40905,101.796911 12.41955,102.892436 13.61205,104.176325 L11.94255,105.373818 C10.88655,104.176325 9.48955,103.594155 7.49605,103.594155 C4.13955,103.594155 2.07855,105.134722 2.07855,108.14704 C2.07855,111.158855 4.17405,112.698418 7.59805,112.698418 C9.69355,112.698418 11.39755,112.151408 12.26605,110.782127 L12.26605,109.412846 L7.29155,109.412846 L7.29155,107.650763 L14.24255,107.650763 L14.24255,111.449689 Z" id="Fill-1" fill="#B5A07B" fill-rule="nonzero"></path>
            <path d="M32.8077,108.146939 C32.8077,105.237091 30.7292,103.611635 27.4922,103.611635 C24.2557,103.611635 22.1602,105.237091 22.1602,108.146939 C22.1602,111.056285 24.2382,112.681239 27.4922,112.681239 C30.7292,112.681239 32.8077,111.056285 32.8077,108.146939 M20.0817,108.146939 C20.0817,104.193303 22.9097,101.79681 27.4922,101.79681 C32.0752,101.79681 34.9032,104.193303 34.9032,108.146939 C34.9032,112.100073 32.0752,114.496566 27.4922,114.496566 C22.9097,114.496566 20.0817,112.100073 20.0817,108.146939" id="Fill-3" fill="#B5A07B" fill-rule="nonzero"></path>
            <polygon id="Fill-5" fill="#B5A07B" fill-rule="nonzero" points="52.42955 112.322845 52.42955 114.136665 41.59455 114.136665 41.59455 102.156711 43.63855 102.156711 43.63855 112.322845"></polygon>
            <path d="M69.71765,108.146939 C69.71765,105.373718 67.53715,103.953202 64.40215,103.953202 L60.55215,103.953202 L60.55215,112.339672 L64.40215,112.339672 C67.53715,112.339672 69.71765,110.919658 69.71765,108.146939 M71.81315,108.146939 C71.81315,111.843395 68.98515,114.136916 64.55565,114.136916 L58.50765,114.136916 L58.50765,102.15646 L64.55565,102.15646 C68.98515,102.15646 71.81315,104.449981 71.81315,108.146939" id="Fill-7" fill="#B5A07B" fill-rule="nonzero"></path>
            <path d="M95.50475,108.026788 C97.20825,108.026788 98.36675,107.479276 98.36675,105.989945 C98.36675,104.501115 97.20825,103.953604 95.50475,103.953604 L89.55875,103.953604 L89.55875,108.026788 L95.50475,108.026788 Z M98.29875,114.136816 L94.60175,109.789876 L89.57625,109.789876 L89.57625,114.136816 L87.53125,114.136816 L87.53125,102.156359 L95.64075,102.156359 C98.41775,102.156359 100.46225,103.491484 100.46225,105.972866 C100.46225,108.043866 99.03125,109.310677 96.95275,109.686903 L100.82025,114.136816 L98.29875,114.136816 Z" id="Fill-9" fill="#B5A07B" fill-rule="nonzero"></path>
            <polygon id="Fill-11" fill="#B5A07B" fill-rule="nonzero" points="120.3563 102.15656 120.3563 114.137017 118.3118 114.137017 118.3118 108.985385 109.2998 108.985385 109.2998 114.137017 107.2553 114.137017 107.2553 102.15656 109.2998 102.15656 109.2998 107.136906 118.3118 107.136906 118.3118 102.15656"></polygon>
            <g id="Fill-13-Clipped" transform="translate(0.000000, 43.000000)">
                <mask id="mask-2" fill="white">
                    <use xlink:href="#path-1"></use>
                </mask>
                <g id="path-1"></g>
                <polygon id="Fill-13" fill="#B5A07B" fill-rule="nonzero" mask="url(#mask-2)" points="127.8655 71.1368157 129.91 71.1368157 129.91 59.1563594 127.8655 59.1563594"></polygon>
            </g>
            <g id="Fill-15-Clipped" transform="translate(0.000000, 43.000000)">
                <mask id="mask-4" fill="white">
                    <use xlink:href="#path-3"></use>
                </mask>
                <g id="path-3"></g>
                <polygon id="Fill-15" fill="#B5A07B" fill-rule="nonzero" mask="url(#mask-4)" points="150.5218 59.1565604 150.5218 71.1370166 148.7163 71.1370166 139.3973 61.6896802 139.3973 71.1370166 137.4208 71.1370166 137.4208 59.1565604 139.6013 59.1565604 148.5288 68.244247 148.5288 59.1565604"></polygon>
            </g>
            <g id="Fill-16-Clipped" transform="translate(0.000000, 43.000000)">
                <mask id="mask-6" fill="white">
                    <use xlink:href="#path-5"></use>
                </mask>
                <g id="path-5"></g>
                <path d="M169.9222,65.1469392 C169.9222,62.2370912 167.8437,60.611635 164.6067,60.611635 C161.3702,60.611635 159.2742,62.2370912 159.2742,65.1469392 C159.2742,68.0562848 161.3527,69.6812387 164.6067,69.6812387 C167.8437,69.6812387 169.9222,68.0562848 169.9222,65.1469392 M157.1962,65.1469392 C157.1962,61.1933032 160.0242,58.7968101 164.6067,58.7968101 C169.1897,58.7968101 172.0177,61.1933032 172.0177,65.1469392 C172.0177,69.1000728 169.1897,71.4965659 164.6067,71.4965659 C160.0242,71.4965659 157.1962,69.1000728 157.1962,65.1469392" id="Fill-16" fill="#B5A07B" fill-rule="nonzero" mask="url(#mask-6)"></path>
            </g>
            <g id="Fill-17-Clipped" transform="translate(0.000000, 43.000000)">
                <mask id="mask-8" fill="white">
                    <use xlink:href="#path-7"></use>
                </mask>
                <g id="path-7"></g>
                <path d="M106.28305,84.8319876 C105.84005,84.2262088 105.14655,83.8796189 104.37955,83.8796189 L97.59055,83.8796189 C97.00555,83.8796189 96.44855,84.0750152 95.98155,84.4447111 C95.51905,84.8073747 95.18805,85.3126926 95.05605,85.8446327 L88.88655,108.530195 C88.87355,108.577914 88.88305,108.626135 88.87655,108.674859 L91.04005,108.674859 L97.10205,86.3815959 C97.12655,86.2841488 97.18955,86.1927295 97.28705,86.115877 C97.38105,86.0410336 97.48305,86.0033608 97.59055,86.0033608 L104.37955,86.0033608 C104.51555,86.0033608 104.55805,86.0616281 104.57605,86.086241 C104.59405,86.1113562 104.64255,86.1776604 104.61255,86.2982134 L98.52455,108.674859 L100.71805,108.674859 L106.65905,86.8346742 C106.83505,86.1198954 106.70305,85.4101396 106.28305,84.8319876" id="Fill-17" fill="#B5A07B" fill-rule="nonzero" mask="url(#mask-8)"></path>
            </g>
            <g id="Fill-18-Clipped" transform="translate(0.000000, 43.000000)">
                <mask id="mask-10" fill="white">
                    <use xlink:href="#path-9"></use>
                </mask>
                <g id="path-9"></g>
                <path d="M167.74055,94.1040198 C167.00305,93.2922963 165.73055,93.3284622 165.54955,93.3435313 L149.09605,93.3435313 L155.52655,99.803665 L158.47455,99.803665 C158.44355,99.7619737 158.42755,99.7132502 158.38955,99.6755774 L154.20205,95.4677756 L165.61005,95.4662687 C165.75555,95.4612456 165.93755,95.4788263 166.06555,95.5094668 L164.70955,100.708315 C164.46805,101.628034 164.15405,102.409619 163.77655,103.02896 C163.39755,103.649306 162.87605,104.225448 162.25055,104.724236 C161.63355,105.184347 160.98455,105.548518 160.32005,105.808711 C159.65905,106.068905 158.90155,106.262292 158.05705,106.385859 C157.72855,106.437596 157.29255,106.481296 156.75655,106.514951 C156.21305,106.552121 155.64705,106.577739 155.07705,106.595319 C154.50605,106.603859 135.05755,106.53002 124.84655,106.488831 C124.82305,106.488831 124.78255,106.471753 124.73005,106.439103 C124.67905,106.407458 124.64455,106.379329 124.62055,106.358232 L117.84505,93.9668908 L113.78505,108.674859 L115.98005,108.674859 L118.49255,99.5630613 L122.91455,107.65267 L123.11355,107.850075 C123.25955,107.996748 123.43105,108.130863 123.61405,108.242877 C124.00155,108.489006 124.41755,108.613075 124.84205,108.613075 C127.88705,108.625633 154.60505,108.730112 155.13955,108.719564 C155.74055,108.699974 156.33205,108.674859 156.89605,108.636181 C157.49155,108.597504 157.99255,108.546269 158.37355,108.486494 C159.36555,108.341831 160.27955,108.10625 161.08905,107.788292 C161.92805,107.459785 162.74255,107.003693 163.53705,106.410471 C164.38405,105.737886 165.07155,104.973379 165.58055,104.13855 C166.06555,103.341895 166.46005,102.370941 166.75505,101.249799 L168.16805,95.8304392 L168.18955,95.7259599 C168.28755,95.1071212 168.12805,94.5309783 167.74055,94.1040198" id="Fill-18" fill="#B5A07B" fill-rule="nonzero" mask="url(#mask-10)"></path>
            </g>
            <g id="Fill-19-Clipped" transform="translate(0.000000, 43.000000)">
                <mask id="mask-12" fill="white">
                    <use xlink:href="#path-11"></use>
                </mask>
                <g id="path-11"></g>
                <path d="M49.94835,95.0286613 L46.13985,95.0286613 L44.53785,97.1529055 L49.94835,97.1529055 C50.53235,97.1529055 51.00585,96.6767212 51.00585,96.0905323 C51.00585,95.503841 50.53235,95.0286613 49.94835,95.0286613" id="Fill-19" fill="#B5A07B" fill-rule="nonzero" mask="url(#mask-12)"></path>
            </g>
            <g id="Fill-20-Clipped" transform="translate(0.000000, 43.000000)">
                <mask id="mask-14" fill="white">
                    <use xlink:href="#path-13"></use>
                </mask>
                <g id="path-13"></g>
                <path d="M86.23935,99.9162816 C85.67435,99.7726226 85.09685,100.109166 84.94885,100.67677 L83.53285,106.133802 C83.50185,106.211659 83.47185,106.271936 83.44885,106.3076 C83.41535,106.356323 83.37585,106.406051 83.34335,106.438199 C83.23235,106.507517 83.12935,106.541171 83.03585,106.541171 L53.50485,106.567291 L54.38135,108.691033 L83.03685,108.66642 C83.53535,108.66642 84.01985,108.520752 84.48535,108.227908 L84.81735,107.962692 C84.95885,107.821544 85.08535,107.667839 85.19985,107.499567 C85.31435,107.327779 85.41285,107.135899 85.51835,106.868171 L86.99535,101.212226 C87.14285,100.644623 86.80435,100.064964 86.23935,99.9162816" id="Fill-20" fill="#B5A07B" fill-rule="nonzero" mask="url(#mask-14)"></path>
            </g>
            <g id="Fill-21-Clipped" transform="translate(0.000000, 43.000000)">
                <mask id="mask-16" fill="white">
                    <use xlink:href="#path-15"></use>
                </mask>
                <g id="path-15"></g>
                <path d="M73.2506,92.3165203 L73.2556,92.3235525 C73.2556,92.3235525 70.4276,92.0538152 69.5326,95.3981562 L69.5201,95.3876078 L68.3431,99.8756954 L70.5301,99.8756954 L71.6306,95.6739212 C72.0616,94.3443221 73.2916,94.4447829 73.2916,94.4447829 L73.2906,94.4407645 L82.8036,94.4407645 C83.3636,94.4407645 83.9026,94.2468751 84.4301,93.8465387 C84.7686,93.5737876 85.0321,93.2206677 85.2626,92.7007829 L85.3666,92.3069765 L73.2506,92.3165203 Z" id="Fill-21" fill="#B5A07B" fill-rule="nonzero" mask="url(#mask-16)"></path>
            </g>
            <g id="Fill-22-Clipped" transform="translate(0.000000, 43.000000)">
                <mask id="mask-18" fill="white">
                    <use xlink:href="#path-17"></use>
                </mask>
                <g id="path-17"></g>
                <path d="M72.2352,83.8783631 C69.3717,83.8783631 67.0372,84.5313585 65.3087,85.8092203 C63.4652,87.1262618 62.2042,89.0626442 61.5617,91.5621097 L60.1767,96.8242479 L56.7982,85.653506 C56.5492,84.5921373 55.6427,83.8793677 54.5427,83.8793677 L46.4052,83.8793677 C46.0477,83.8793677 45.6897,83.9627502 45.3077,84.1380544 C44.9812,84.2882433 44.6957,84.4856488 44.4362,84.7453401 L30.8932,101.57705 L33.6087,101.57705 L45.9547,86.2256304 C46.0127,86.1673631 46.0937,86.1131143 46.1872,86.0694138 C46.3187,86.0096396 46.3837,86.0026074 46.4052,86.0026074 L54.5427,86.0026074 C54.6947,86.0026074 54.7227,86.0674046 54.7497,86.1814276 L59.2027,100.911497 C59.2197,100.97328 59.2592,101.020497 59.2862,101.076253 C59.4077,101.398229 59.6647,101.661939 60.0237,101.743312 C60.1027,101.7624 60.1807,101.770939 60.2582,101.770939 C60.7412,101.770939 61.1772,101.436405 61.2887,100.943142 C61.3187,100.809529 61.3527,100.673405 61.3867,100.540796 L63.6082,92.0990728 C64.1237,90.0923677 65.1082,88.5583309 66.5487,87.5306166 C67.9197,86.5169668 69.8327,86.0026074 72.2352,86.0026074 L89.1262,86.0136581 C89.6862,86.0136581 90.2247,85.8192664 90.7532,85.4169207 C91.0917,85.143165 91.3547,84.7885382 91.5852,84.2656396 L91.6897,83.8703263 L72.2352,83.8783631 Z" id="Fill-22" fill="#B5A07B" fill-rule="nonzero" mask="url(#mask-18)"></path>
            </g>
            <g id="Fill-23-Clipped" transform="translate(0.000000, 43.000000)">
                <mask id="mask-20" fill="white">
                    <use xlink:href="#path-19"></use>
                </mask>
                <g id="path-19"></g>
                <path d="M152.11705,83.8783631 C148.75455,83.8783631 145.34555,84.1169576 143.17905,85.8458885 C141.94355,86.8294 140.33805,88.6266442 139.70805,91.5837088 L137.83355,99.640165 C137.82605,99.6703032 137.83505,99.7009438 137.830432,99.7320866 L139.98405,99.7320866 L141.77205,92.0478378 C142.27505,89.6870083 143.52905,88.2785475 144.49355,87.5095198 C146.38155,86.0026074 150.25505,86.0026074 152.11705,86.0026074 L168.77655,86.0026074 C169.33605,86.0026074 169.87555,85.8097226 170.40305,85.4098885 C170.74155,85.1376396 171.00455,84.7855244 171.23505,84.2661419 L171.33955,83.8743447 L152.11705,83.8783631 Z" id="Fill-23" fill="#B5A07B" fill-rule="nonzero" mask="url(#mask-20)"></path>
            </g>
            <g id="Fill-24-Clipped" transform="translate(0.000000, 43.000000)">
                <mask id="mask-22" fill="white">
                    <use xlink:href="#path-21"></use>
                </mask>
                <g id="path-21"></g>
                <path d="M134.0936,83.8793677 C133.5061,83.8793677 132.9481,84.076271 132.4876,84.4424507 C132.0236,84.8061189 131.6921,85.3104323 131.5581,85.8468931 L129.6871,92.8465014 L125.3231,84.8362571 L125.1106,84.6242848 C124.9746,84.4926811 124.8201,84.3716258 124.6081,84.236506 C124.2171,83.9948977 123.8291,83.8793677 123.4201,83.8793677 L113.1156,83.8793677 C112.5336,83.8793677 111.9766,84.0752664 111.5056,84.4459668 C111.0386,84.8136535 110.7171,85.3054092 110.5821,85.8453862 L104.3931,108.674607 L106.5841,108.674607 L112.6276,86.3828516 C112.6526,86.2844 112.7161,86.191976 112.8116,86.1171327 C112.9071,86.0422894 113.0096,86.003612 113.1156,86.003612 L123.4136,86.003612 C123.4191,86.003612 123.4421,86.0106442 123.4856,86.0372664 C123.5436,86.0739346 123.5871,86.1045751 123.6196,86.1316995 L130.3626,98.5119899 L133.6046,86.3808424 C133.6286,86.2854046 133.6941,86.191976 133.7946,86.1131143 C133.8851,86.0412848 133.9881,86.003612 134.0936,86.003612 L138.9171,86.0026074 C139.4776,86.0026074 140.0166,85.8092203 140.5441,85.4088839 C140.8826,85.1361327 141.1456,84.7830129 141.3761,84.2636304 L141.4806,83.869824 L134.0936,83.8793677 Z" id="Fill-24" fill="#B5A07B" fill-rule="nonzero" mask="url(#mask-22)"></path>
            </g>
            <g id="Fill-25-Clipped" transform="translate(0.000000, 43.000000)">
                <mask id="mask-24" fill="white">
                    <use xlink:href="#path-23"></use>
                </mask>
                <g id="path-23"></g>
                <path d="M16.19565,91.4276429 L15.57115,93.5518871 L22.65265,93.5624355 C23.21215,93.5624355 23.75115,93.3675415 24.27915,92.9656982 C24.61765,92.6914401 24.88065,92.3368134 25.11115,91.8149194 L25.21565,91.4191037 L16.19565,91.4276429 Z" id="Fill-25" fill="#B5A07B" fill-rule="nonzero" mask="url(#mask-24)"></path>
            </g>
            <g id="Fill-26-Clipped" transform="translate(0.000000, 43.000000)">
                <mask id="mask-26" fill="white">
                    <use xlink:href="#path-25"></use>
                </mask>
                <g id="path-25"></g>
                <path d="M41.3009,101.8495 L37.5464,106.589241 L23.0279,106.542025 L14.6669,96.6079558 L11.3124,108.674808 L13.5069,108.674808 L15.6359,101.050836 L22.0454,108.666269 L38.6894,108.674808 L42.3379,103.973744 L51.6569,103.97073 C52.2164,103.97073 52.7554,103.776338 53.2834,103.373993 C53.6219,103.099232 53.8849,102.744606 54.1154,102.222712 L54.2199,101.8279 L41.3009,101.8495 Z" id="Fill-26" fill="#B5A07B" fill-rule="nonzero" mask="url(#mask-26)"></path>
            </g>
            <g id="Fill-27-Clipped" transform="translate(0.000000, 43.000000)">
                <mask id="mask-28" fill="white">
                    <use xlink:href="#path-27"></use>
                </mask>
                <g id="path-27"></g>
                <path d="M34.9813,87.4033327 C34.7468,86.8256829 34.4128,86.3143373 34.0193,85.9160101 C33.2643,85.0841945 32.1808,84.51207 30.8113,84.2167152 L30.7198,84.1991346 C30.1648,84.1041991 29.5653,84.0223235 28.9408,83.957024 C28.2943,83.887706 27.5448,83.853047 26.7138,83.853047 L9.7903,83.853047 C9.2228,83.853047 8.6818,84.0243327 8.2248,84.3513327 L7.9773,84.5628028 C7.5943,84.9455585 7.3473,85.3770378 7.2423,85.8446829 L0.6113,108.674909 L2.8148,108.674909 L9.2833,86.4037475 L9.3043,86.3173512 C9.3103,86.2897244 9.3348,86.2153834 9.4708,86.0692129 C9.5648,86.0084341 9.6723,85.9767889 9.7903,85.9767889 L26.7138,85.9767889 C27.4708,85.9767889 28.1453,86.0084341 28.7198,86.0702175 C29.3013,86.1309963 29.8538,86.2058396 30.3558,86.2922359 C31.2978,86.4941622 32.0043,86.8492912 32.4863,87.3797244 C32.7128,87.6092774 32.8933,87.8875539 33.0243,88.2090286 C33.1573,88.5335171 33.2423,88.9157705 33.2773,89.3397152 C33.2943,89.790282 33.2688,90.2935908 33.1988,90.8411023 C33.1283,91.4036829 33.0438,92.0044387 32.8493,92.6102175 C32.7618,92.8824664 32.6483,93.1386415 32.5363,93.3953189 C32.0953,94.2547613 30.2883,97.1565724 25.8938,97.3760793 L25.9238,97.5016553 C25.9238,97.5016553 26.6398,98.8684249 29.4678,98.2566184 C29.4678,98.2566184 33.0468,97.747282 34.6718,93.778577 L34.6758,93.7790793 C34.6828,93.760494 34.6893,93.7404018 34.6968,93.7213143 C34.7208,93.6610378 34.7488,93.6077935 34.7723,93.5460101 L34.7608,93.5440009 C34.7948,93.4505724 34.8313,93.3581484 34.8618,93.2637152 C35.1133,92.480623 35.2188,91.7392221 35.2968,91.1083281 C35.3813,90.4477982 35.4128,89.8239364 35.3853,89.1719456 C35.3328,88.5229687 35.1963,87.9272359 34.9813,87.4033327" id="Fill-27" fill="#B5A07B" fill-rule="nonzero" mask="url(#mask-28)"></path>
            </g>
            <g id="Fill-28-Clipped" transform="translate(0.000000, 43.000000)">
                <mask id="mask-30" fill="white">
                    <use xlink:href="#path-29"></use>
                </mask>
                <g id="path-29"></g>
                <polygon id="Fill-28" fill="#B5A07B" fill-rule="nonzero" mask="url(#mask-30)" points="176.3817 59.2340659 176.3817 59.6198355 175.5842 59.6198355 175.5842 61.5913793 175.1147 61.5913793 175.1147 59.6198355 174.3172 59.6198355 174.3172 59.2340659"></polygon>
            </g>
            <g id="Fill-29-Clipped" transform="translate(0.000000, 43.000000)">
                <mask id="mask-32" fill="white">
                    <use xlink:href="#path-31"></use>
                </mask>
                <g id="path-31"></g>
                <polygon id="Fill-29" fill="#B5A07B" fill-rule="nonzero" mask="url(#mask-32)" points="177.46225 59.2340659 178.25325 61.1538724 179.03075 59.2340659 179.81325 59.2340659 179.81325 61.5913793 179.34375 61.5913793 179.34375 59.5670935 179.33775 59.5670935 178.52025 61.5913793 177.94625 61.5913793 177.10825 59.5670935 177.10225 59.5670935 177.10225 61.5913793 176.67925 61.5913793 176.67925 59.2340659"></polygon>
            </g>
            <g id="Fill-30-Clipped" transform="translate(0.000000, 43.000000)">
                <mask id="mask-34" fill="white">
                    <use xlink:href="#path-33"></use>
                </mask>
                <g id="path-33"></g>
                <path d="M68.65,41.24997 C67.946,41.2891498 67.7485,42.3871866 67.7485,42.3871866 L69.8635,42.2234355 C69.8635,42.2234355 69.382,41.2087811 68.65,41.24997" id="Fill-30" fill="#B5A07B" fill-rule="nonzero" mask="url(#mask-34)"></path>
            </g>
            <g id="Fill-31-Clipped" transform="translate(0.000000, 43.000000)">
                <mask id="mask-36" fill="white">
                    <use xlink:href="#path-35"></use>
                </mask>
                <g id="path-35"></g>
                <path d="M99.63755,40.9043848 C99.03005,40.8506382 98.17155,41.8803618 98.33105,42.2706521 C99.51405,42.2530714 100.20305,42.3063157 100.78555,42.2530714 C100.55605,41.5965599 100.23805,40.957629 99.63755,40.9043848" id="Fill-31" fill="#B5A07B" fill-rule="nonzero" mask="url(#mask-36)"></path>
            </g>
            <g id="Fill-32-Clipped" transform="translate(0.000000, 43.000000)">
                <mask id="mask-38" fill="white">
                    <use xlink:href="#path-37"></use>
                </mask>
                <g id="path-37"></g>
                <path d="M66.2501,41.4336627 C65.7681,41.4874092 65.2941,42.3533816 65.2941,42.3533816 L67.2601,42.2780359 C67.2601,42.2780359 66.9821,41.3517871 66.2501,41.4336627" id="Fill-32" fill="#B5A07B" fill-rule="nonzero" mask="url(#mask-38)"></path>
            </g>
            <g id="Fill-33-Clipped" transform="translate(0.000000, 43.000000)">
                <mask id="mask-40" fill="white">
                    <use xlink:href="#path-39"></use>
                </mask>
                <g id="path-39"></g>
                <path d="M102.1151,26.2742742 C101.8416,26.9764954 102.2766,28.2242189 101.2201,31.2596429 C100.9706,31.9764309 100.5731,35.335841 101.3731,38.6957535 C101.4826,36.8121129 102.0721,33.6094217 103.6881,31.8066521 C105.6441,29.6246429 105.9131,25.6373525 105.9131,25.6373525 C104.9931,25.5383986 102.3886,25.572053 102.1151,26.2742742" id="Fill-33" fill="#B5A07B" fill-rule="nonzero" mask="url(#mask-40)"></path>
            </g>
            <g id="Fill-34-Clipped" transform="translate(0.000000, 43.000000)">
                <mask id="mask-42" fill="white">
                    <use xlink:href="#path-41"></use>
                </mask>
                <g id="path-41"></g>
                <path d="M103.70495,41.2703134 C103.70495,41.2703134 103.56945,40.3305023 102.02395,39.7176912 C102.32645,40.0215853 102.53795,40.415894 102.67345,40.731341 C101.99795,40.8559124 101.20095,41.7620691 101.28245,42.4974424 C102.64495,42.4768479 103.62145,42.5180369 104.29245,42.4567558 C104.16545,42.0940922 103.90195,41.5516037 103.70345,41.2703134 L103.70495,41.2703134 Z" id="Fill-34" fill="#B5A07B" fill-rule="nonzero" mask="url(#mask-42)"></path>
            </g>
            <g id="Fill-35-Clipped" transform="translate(0.000000, 43.000000)">
                <mask id="mask-44" fill="white">
                    <use xlink:href="#path-43"></use>
                </mask>
                <g id="path-43"></g>
                <path d="M97.28845,42.4012512 C96.96295,40.8079424 98.23645,39.94197 98.10195,38.9142558 C98.05295,36.7503295 97.03545,34.1212696 97.03895,31.7257811 C96.96545,32.4571359 96.82695,33.4652604 96.96595,34.7737627 C97.12945,36.2992604 97.18295,37.1963756 97.40095,38.8600069 C97.53495,39.8877212 96.09895,40.7531912 96.42395,42.3470023 C96.54245,42.351523 96.84895,42.4565046 97.28845,42.4012512" id="Fill-35" fill="#B5A07B" fill-rule="nonzero" mask="url(#mask-44)"></path>
            </g>
            <g id="Fill-36-Clipped" transform="translate(0.000000, 43.000000)">
                <mask id="mask-46" fill="white">
                    <use xlink:href="#path-45"></use>
                </mask>
                <g id="path-45"></g>
                <path d="M97.0775,31.2321166 C97.0775,31.122112 97.0805,31.0276788 97.075,30.9593654 C96.75,30.1963654 96.695,29.5971166 96.5325,27.9078677 C96.0895,28.9174991 95.939,29.7583562 95.8985,30.3355037 C94.096,30.5826373 93.112,30.7102226 87.399,31.4511212 C78.6475,31.7203562 75.0675,28.3182502 73.4535,26.7580935 C75.6775,29.3193424 78.869,33.0273516 87.639,32.7576143 C93.352,32.0167157 94.6625,31.5360106 97.0775,31.2321166" id="Fill-36" fill="#B5A07B" fill-rule="nonzero" mask="url(#mask-46)"></path>
            </g>
            <g id="Fill-37-Clipped" transform="translate(0.000000, 43.000000)">
                <mask id="mask-48" fill="white">
                    <use xlink:href="#path-47"></use>
                </mask>
                <g id="path-47"></g>
                <path d="M63.44665,40.2492797 C63.41515,40.0975839 63.38265,39.9539249 63.34015,39.8122751 C63.34715,39.8534641 63.35315,39.894653 63.35565,39.9358419 C63.42615,40.9404502 62.56965,41.9119065 62.74565,42.5643995 C62.93115,42.5643995 63.12065,42.5643995 63.31115,42.5638972 C63.13565,41.9119065 63.69065,41.420653 63.44665,40.2492797" id="Fill-37" fill="#B5A07B" fill-rule="nonzero" mask="url(#mask-48)"></path>
            </g>
            <g id="Fill-38-Clipped" transform="translate(0.000000, 43.000000)">
                <mask id="mask-50" fill="white">
                    <use xlink:href="#path-49"></use>
                </mask>
                <g id="path-49"></g>
                <path d="M66.2501,41.4336627 C65.7681,41.4874092 65.2941,42.3533816 65.2941,42.3533816 L67.2601,42.2780359 C67.2601,42.2780359 66.9821,41.3517871 66.2501,41.4336627" id="Fill-38" fill="#B5A07B" fill-rule="nonzero" mask="url(#mask-50)"></path>
            </g>
            <g id="Fill-39-Clipped" transform="translate(0.000000, 43.000000)">
                <mask id="mask-52" fill="white">
                    <use xlink:href="#path-51"></use>
                </mask>
                <g id="path-51"></g>
                <path d="M70.3287,31.492059 C71.4982,29.9128147 71.6712,29.1357502 71.8162,28.502847 C71.8032,28.5164092 71.7907,28.5274599 71.7767,28.542529 C70.8677,29.6259991 69.8302,30.2694507 69.1627,31.056059 C67.2242,34.4476166 66.4377,38.7382986 67.1967,39.8825475 C67.2752,40.0648839 68.1282,40.671165 68.4242,41.3045705 C67.9032,41.531612 67.7482,42.3870359 67.7482,42.3870359 L69.8632,42.2237871 C69.8632,42.2237871 69.8367,42.167529 69.7877,42.0846488 C69.4757,40.7942295 68.4657,40.6641327 68.0102,39.9910452 C67.5492,39.3099207 67.8807,36.4025843 68.8352,34.0347226 C68.9452,33.7609668 69.5027,32.4901373 70.3287,31.492059" id="Fill-39" fill="#B5A07B" fill-rule="nonzero" mask="url(#mask-52)"></path>
            </g>
            <g id="Fill-40-Clipped" transform="translate(0.000000, 43.000000)">
                <mask id="mask-54" fill="white">
                    <use xlink:href="#path-53"></use>
                </mask>
                <g id="path-53"></g>
                <path d="M71.3834,40.426141 C69.8649,39.6088922 69.4854,37.6478968 69.4854,37.4841456 C69.4854,37.3866986 69.3124,36.5362977 69.3799,35.2092101 C69.4004,35.1122654 69.4124,35.0128092 69.4124,34.9098369 C69.4114,34.8470488 69.4139,34.7852654 69.4144,34.7229797 C69.4244,34.6169935 69.4354,34.5084959 69.4484,34.3979889 C68.8489,35.3418184 68.9244,37.5564774 68.9244,37.661459 C68.9244,37.8247078 69.0869,39.7314544 70.6054,40.5487032 C72.1239,41.3664544 72.1239,42.6192009 72.1239,42.6192009 L73.0104,42.5508876 C73.0104,42.5508876 72.9019,41.2433899 71.3834,40.426141" id="Fill-40" fill="#B5A07B" fill-rule="nonzero" mask="url(#mask-54)"></path>
            </g>
            <g id="Fill-41-Clipped" transform="translate(0.000000, 43.000000)">
                <mask id="mask-56" fill="white">
                    <use xlink:href="#path-55"></use>
                </mask>
                <g id="path-55"></g>
                <path d="M62.7225,33.6305687 C63.483,31.7383889 62.6815,30.2796977 62.0295,29.6362461 C62.3215,30.5785687 62.2635,31.6781124 61.512,33.5476885 C60.6575,35.672435 60.2235,36.4625594 61.1865,37.3888083 C61.321,37.490776 61.448,37.5892276 61.57,37.68567 C61.4205,36.2048774 61.9255,35.6131631 62.7225,33.6305687" id="Fill-41" fill="#B5A07B" fill-rule="nonzero" mask="url(#mask-56)"></path>
            </g>
            <g id="Fill-42-Clipped" transform="translate(0.000000, 43.000000)">
                <mask id="mask-58" fill="white">
                    <use xlink:href="#path-57"></use>
                </mask>
                <g id="path-57"></g>
                <path d="M102.1151,26.2742742 C102.0146,27.5415876 102.1771,28.3593387 101.2201,31.2596429 C100.9821,31.9804493 100.5731,35.335841 101.3731,38.6957535 C101.4826,36.8121129 102.0721,33.6094217 103.6881,31.8066521 C105.6441,29.6246429 105.9131,25.6373525 105.9131,25.6373525 C104.9931,25.5383986 102.1746,25.5223249 102.1151,26.2742742" id="Fill-42" fill="#B5A07B" fill-rule="nonzero" mask="url(#mask-58)"></path>
            </g>
            <g id="Fill-43-Clipped" transform="translate(0.000000, 43.000000)">
                <mask id="mask-60" fill="white">
                    <use xlink:href="#path-59"></use>
                </mask>
                <g id="path-59"></g>
                <path d="M43.69565,43.3950599 C66.14865,43.3744654 119.52765,43.3950599 125.44215,43.3950599 C96.49215,41.3521889 70.90715,41.4747512 43.69565,43.3950599" id="Fill-43" fill="#B5A07B" fill-rule="nonzero" mask="url(#mask-60)"></path>
            </g>
            <g id="Fill-44-Clipped" transform="translate(0.000000, 43.000000)">
                <mask id="mask-62" fill="white">
                    <use xlink:href="#path-61"></use>
                </mask>
                <g id="path-61"></g>
                <path d="M104.7762,39.9767797 C104.3002,39.6844387 104.9162,34.842729 105.7422,32.8701806 C103.9942,34.8291668 103.4532,39.5307336 103.9587,39.8406553 C104.8117,40.6438396 105.4877,41.6333788 105.3092,42.4978442 C105.7597,42.5119088 106.2867,42.6028258 106.6202,42.6188995 C106.8372,41.7474018 105.6437,40.7940286 104.7762,39.9767797" id="Fill-44" fill="#B5A07B" fill-rule="nonzero" mask="url(#mask-62)"></path>
            </g>
            <g id="Fill-45-Clipped" transform="translate(0.000000, 43.000000)">
                <mask id="mask-64" fill="white">
                    <use xlink:href="#path-63"></use>
                </mask>
                <g id="path-63"></g>
                <path d="M127.61265,19.8667318 C122.04965,20.6257134 120.13565,16.7137687 116.95665,17.3943908 C115.47215,20.2454691 115.27465,20.3911373 114.08165,20.9903862 C112.95915,21.5539714 109.39065,25.1856304 108.84815,25.9481281 C108.47965,26.4660037 107.55015,27.774506 106.66115,28.52093 C107.35665,28.2908747 107.84465,28.0728747 108.44115,27.637377 C108.17015,29.6531235 106.57715,31.6191419 106.57715,31.6191419 C107.62915,30.4497779 109.45915,28.8313539 109.74315,25.8325982 C110.91165,24.7481235 113.56665,22.0045382 114.29865,21.6443862 C115.49665,21.0541788 115.76665,21.3615889 117.24965,18.5105106 C120.64715,17.4300544 120.58815,21.7031558 128.23215,19.7908839 C127.96515,19.7984184 127.83715,19.8355889 127.61265,19.8667318" id="Fill-45" fill="#B5A07B" fill-rule="nonzero" mask="url(#mask-64)"></path>
            </g>
            <g id="Fill-46-Clipped" transform="translate(0.000000, 43.000000)">
                <mask id="mask-66" fill="white">
                    <use xlink:href="#path-65"></use>
                </mask>
                <g id="path-65"></g>
                <path d="M126.765,12.715277 C126.622,12.662535 126.442,12.61783 126.3475,12.6258668 C126.0835,13.075429 125.296,13.0196733 124.5645,12.5264106 C125.2095,12.2235212 125.296,11.5524429 126.1135,11.6554152 C126.626,11.7197101 126.8385,12.1381295 126.9135,12.4706548 C126.938,12.5811618 126.9375,12.7790696 126.765,12.715277 M132.9765,12.5590604 C132.4495,11.8477977 131.733,10.9798161 131.2115,10.4503876 C132.7325,10.0666272 134.034,9.65775161 135.783,8.43212949 C134.807,10.556876 133.4645,11.0878115 132.9765,12.5590604 M132.948,16.3253369 C132.8595,16.7472724 132.929,17.2656502 132.6025,17.3058346 C132.476,17.321406 132.1565,17.1039083 131.87,16.890429 C131.1105,16.3253369 131.266,16.0234521 131.31,15.9355488 C131.795,15.7512032 132.16,15.6763599 132.433,15.6713369 C133.189,15.6572724 132.9955,16.0977931 132.948,16.3253369 M128.665,9.37143825 C128.136,9.5351894 127.5965,9.43372396 127.159,9.37897281 C126.6995,9.32120783 126.109,9.18759493 125.4685,8.88771935 C125.2625,8.79177926 125.052,8.67876083 124.8385,8.54565023 C126.2785,8.78575161 127.418,8.35025392 128.9365,5.62575622 C129.2075,7.36925392 128.6865,9.24284839 128.665,9.37143825 M140.034,0.0747930876 C134.261,8.55067327 130.346,9.53016636 130.218,9.5598023 C130.0255,9.47240138 129.811,9.39102811 129.576,9.31769171 C129.664,8.96909263 130.817,4.24542442 129.912,0.115479724 C129.143,2.64709263 127.2345,6.13509263 126.5915,6.98700046 C125.4735,8.46829539 122.8935,8.09156728 120.823,5.65488986 C120.8265,5.66443364 120.8305,5.67247051 120.834,5.68201429 C120.412,5.23345668 119.904,4.87581613 119.2175,4.77083456 C118.9345,5.56748894 119.326,6.41336912 118.7005,6.50981152 C117.862,6.63940599 117.331,5.25304654 117.653,3.63612949 C117.928,2.25429078 118.677,1.74897281 119.278,1.32804194 C119.566,1.12661797 119.931,1.0211341 120.0935,1.55257189 C120.296,2.21209724 120.4485,3.06701889 120.072,3.68686221 C120.128,3.64718018 120.1845,3.60749816 120.2465,3.56831843 C121.6225,2.48836452 120.5575,0.0426456221 120.0025,-5.02304147e-05 C119.5325,0.771991244 116.689,1.34160415 116.6265,3.88175622 C116.621,4.10176544 116.6395,4.31172857 116.6775,4.51064101 C116.034,4.4001341 114.48,4.16555806 114.1695,4.11482535 C108.744,3.22976544 105.5535,3.74412488 102.4755,3.22876083 C99.2985,2.69682074 91.2935,7.55761797 88.836,7.88712949 C84.3585,8.44066866 80.088,5.90955806 73.509,6.50127235 C71.427,6.68812949 67.156,7.15175622 64.9595,8.74506498 C61.213,11.463535 58.7525,14.0313138 57.932,16.2359267 C57.112,18.4400373 56.848,23.4761387 56.4585,25.2537931 C54.4675,27.9079682 55.7495,29.2707194 54.6645,30.3602171 C57.431,30.3059682 57.362,26.632618 57.4755,25.2944797 C57.6545,23.1822908 57.797,20.929959 58.37,19.8600512 C59.0995,24.7735903 60.6255,27.2368899 61.425,28.462512 C61.221,28.0807608 60.9645,27.5367654 60.6265,26.546724 C58.0235,18.9192355 59.6505,14.1247424 62.777,11.3063138 C61.7505,13.2236088 61.155,15.7301065 61.862,17.4268899 C63.0175,15.3483553 64.6585,14.3954843 66.13,14.114194 C63.979,21.6015396 68.06,22.5142263 66.65,28.6167194 C73.4835,23.3862263 69.9315,21.4222171 69.321,17.2430465 C69.149,16.0641387 68.6705,13.9740512 69.972,14.2196779 C71.2735,14.4643 70.7855,15.4859866 71.07,17.6107332 C71.4155,20.1880558 73.193,23.901088 75.002,24.6394751 C73.367,22.3735811 73.063,19.6129175 72.7485,17.3224106 C76.087,21.2614797 87.5515,25.8063276 93.544,22.8397194 C94.6495,20.24783 96.083,19.7947516 97.803,16.9969175 C98.1185,17.8081387 95.394,22.3509774 96.045,26.1920972 C97.4275,19.8173553 100.157,19.2432217 101.5225,15.2137378 C103.088,16.2339175 102.433,20.0740327 102.878,21.3699774 C103.5965,21.9014152 105.332,22.1194152 107.149,22.105853 C105.4815,23.6584751 100.4205,21.9883138 98.9735,25.7289728 C100.546,24.257724 105.3185,23.8764751 106.4575,24.0944751 C107.0265,24.2034751 107.6505,24.3124751 108.356,24.693724 C108.8435,24.9579359 109.1145,23.9854751 108.7895,22.9502263 C110.9045,19.7902309 112.0975,17.0662355 110.362,14.3417378 C108.627,11.6177424 107.054,10.0922447 106.078,8.07649816 C109.2235,11.2364935 113.2365,11.2364935 114.4215,16.7010604 C114.4295,13.1974889 113.616,13.2522401 114.05,9.81999585 C114.2505,8.23673318 115.47,6.79311106 115.5685,7.04124931 C114.8795,9.33276083 115.569,12.4912493 116.56,14.2658899 C117.0545,11.8673876 117.9085,11.2234336 117.268,9.85063641 C119.916,11.6955995 118.2035,14.5150327 120.766,16.059618 C122.9905,17.4002677 125.5655,16.999429 127.2615,17.8312447 C127.599,16.5905535 130.46,18.3204889 131.789,18.4294889 C131.853,18.645982 131.4225,18.9473645 131.07,18.9744889 C131.016,19.0834889 130.8395,19.9826134 129.1045,19.9554889 C130.945,20.4176088 131.5175,19.5280281 131.6835,19.0965488 C132.7125,19.1718945 133.1995,18.1120327 133.285,17.1245028 C133.441,16.3770742 133.5755,15.3915535 133.407,14.4813783 C133.1715,12.9327747 133.706,12.2767654 134.183,11.7448253 C135.5055,10.2700604 138.663,6.53291751 140.034,0.0747930876" id="Fill-46" fill="#B5A07B" fill-rule="nonzero" mask="url(#mask-66)"></path>
            </g>
            <g id="Fill-47-Clipped" transform="translate(0.000000, 43.000000)">
                <mask id="mask-68" fill="white">
                    <use xlink:href="#path-67"></use>
                </mask>
                <g id="path-67"></g>
                <path d="M99.63805,40.902677 C99.03055,40.8489304 98.17205,41.8781516 98.33105,42.2689442 C99.51455,42.2513636 100.20305,42.3046078 100.78605,42.2513636 C100.55655,41.5943498 100.23855,40.9559212 99.63805,40.902677" id="Fill-47" fill="#B5A07B" fill-rule="nonzero" mask="url(#mask-68)"></path>
            </g>
            <g id="Fill-48-Clipped" transform="translate(0.000000, 43.000000)">
                <mask id="mask-70" fill="white">
                    <use xlink:href="#path-69"></use>
                </mask>
                <g id="path-69"></g>
                <path d="M103.70395,41.2683544 L103.70545,41.2683544 C103.70545,41.2683544 103.56945,40.3285433 102.02445,39.7157323 C102.32695,40.0196263 102.53845,40.413935 102.67345,40.729382 C101.99845,40.8539535 101.18545,41.8786539 101.35295,42.290041 C102.71545,42.2694465 103.50845,42.3307276 104.17995,42.2694465 C104.05295,41.9067829 103.90195,41.5496447 103.70395,41.2683544" id="Fill-48" fill="#B5A07B" fill-rule="nonzero" mask="url(#mask-70)"></path>
            </g>
        </g>
    </g>
</svg>