<?xml version="1.0" encoding="UTF-8"?>
<svg width="108px" height="65px" viewBox="0 0 108 65" version="1.1" xmlns="http://www.w3.org/2000/svg" xmlns:xlink="http://www.w3.org/1999/xlink">
    <title>gold-rhino-white</title>
    <defs>
        <filter id="filter-1">
            <feColorMatrix in="SourceGraphic" type="matrix" values="0 0 0 0 1.000000 0 0 0 0 1.000000 0 0 0 0 1.000000 0 0 0 1.000000 0"></feColorMatrix>
        </filter>
    </defs>
    <g id="Page-1" stroke="none" stroke-width="1" fill="none" fill-rule="evenodd">
        <g id="gold-rhino-white">
            <path d="M23.2804,61.964196 C24.30456,61.964196 24.92098,62.514756 24.92098,63.392396 C24.92098,64.270776 24.30456,64.821336 23.2804,64.821336 C22.25698,64.821336 21.64056,64.270776 21.64056,63.392396 C21.64056,62.514756 22.25698,61.964196 23.2804,61.964196 Z M55.587542,61.964196 C56.611702,61.964196 57.228122,62.514756 57.228122,63.392396 C57.228122,64.270776 56.611702,64.821336 55.587542,64.821336 C54.564122,64.821336 53.947702,64.270776 53.947702,63.392396 C53.947702,62.514756 54.564122,61.964196 55.587542,61.964196 Z M60.137432,61.963826 C60.796772,61.963826 61.239292,62.210246 61.508652,62.526226 L61.227452,62.722326 C60.985472,62.418186 60.626572,62.264266 60.137432,62.264266 C59.333052,62.264266 58.820972,62.645366 58.820972,63.392026 C58.820972,64.139426 59.336752,64.520526 60.161112,64.520526 C60.696132,64.520526 61.134952,64.362906 61.335492,63.989206 L61.335492,63.638446 L60.110792,63.638446 L60.110792,63.338746 L61.658872,63.338746 L61.658872,64.085406 C61.435392,64.504986 60.896672,64.820966 60.149272,64.820966 C59.106612,64.820966 58.490192,64.270406 58.490192,63.392026 C58.490192,62.514386 59.106612,61.963826 60.137432,61.963826 Z M78.050686,62.045226 L78.050686,62.344926 L75.806266,62.344926 L75.806266,63.219606 L77.708066,63.219606 L77.708066,63.519306 L75.806266,63.519306 L75.806266,64.439866 L78.089166,64.439866 L78.089166,64.740306 L75.482886,64.740306 L75.482886,62.045226 L78.050686,62.045226 Z M52.944336,62.044634 L52.944336,62.337674 L51.669316,62.337674 L51.669316,64.740454 L51.346676,64.740454 L51.346676,62.337674 L50.075356,62.337674 L50.075356,62.044634 L52.944336,62.044634 Z M37.232804,62.044634 L38.715764,64.740454 L38.350204,64.740454 L37.957264,64.016734 L36.139824,64.016734 L35.747624,64.740454 L35.388724,64.740454 L36.871684,62.044634 L37.232804,62.044634 Z M69.718656,62.044634 L69.718656,62.337674 L68.443636,62.337674 L68.443636,64.740454 L68.120996,64.740454 L68.120996,62.337674 L66.849676,62.337674 L66.849676,62.044634 L69.718656,62.044634 Z M65.672336,62.045226 L65.672336,62.344926 L63.427916,62.344926 L63.427916,63.219606 L65.329716,63.219606 L65.329716,63.519306 L63.427916,63.519306 L63.427916,64.439866 L65.710816,64.439866 L65.710816,64.740306 L63.104536,64.740306 L63.104536,62.045226 L65.672336,62.045226 Z M81.25422,62.044782 C81.8551,62.044782 82.28652,62.345222 82.28652,62.876542 C82.28652,63.346442 81.9476,63.638742 81.45106,63.696462 L82.37088,64.739862 L81.9476,64.739862 L81.05442,63.708302 L79.772,63.708302 L79.772,64.739862 L79.44492,64.739862 L79.44492,62.044782 L81.25422,62.044782 Z M71.323346,62.045004 L71.323346,63.219384 L73.541126,63.219384 L73.541126,62.045004 L73.864506,62.045004 L73.864506,64.740084 L73.541126,64.740084 L73.541126,63.527224 L71.323346,63.527224 L71.323346,64.740084 L70.999966,64.740084 L70.999966,62.045004 L71.323346,62.045004 Z M20.592942,62.044782 L20.592942,62.345222 L18.352222,62.345222 L18.352222,63.288722 L20.254022,63.288722 L20.254022,63.589162 L18.352222,63.589162 L18.352222,64.739862 L18.028842,64.739862 L18.028842,62.044782 L20.592942,62.044782 Z M28.168618,62.044782 C28.769498,62.044782 29.200918,62.345222 29.200918,62.876542 C29.200918,63.346442 28.861998,63.638742 28.365458,63.696462 L29.285278,64.739862 L28.861998,64.739862 L27.968818,63.708302 L26.686398,63.708302 L26.686398,64.739862 L26.359318,64.739862 L26.359318,62.044782 L28.168618,62.044782 Z M45.590142,62.044856 C46.575822,62.044856 47.206302,62.564336 47.206302,63.392396 C47.206302,64.220456 46.575822,64.739936 45.590142,64.739936 L44.280342,64.739936 L44.280342,62.044856 L45.590142,62.044856 Z M41.795792,62.044782 C42.396672,62.044782 42.828092,62.345222 42.828092,62.876542 C42.828092,63.346442 42.489172,63.638742 41.992632,63.696462 L42.912452,64.739862 L42.489172,64.739862 L41.595992,63.708302 L40.313572,63.708302 L40.313572,64.739862 L39.986492,64.739862 L39.986492,62.044782 L41.795792,62.044782 Z M30.658866,62.045004 L31.471386,64.347144 L32.346066,62.045004 L32.673146,62.045004 L33.543386,64.347144 L34.358866,62.045004 L34.705926,62.045004 L33.716546,64.740084 L33.373186,64.740084 L32.507386,62.433504 L31.637146,64.740084 L31.294526,64.740084 L30.305146,62.045004 L30.658866,62.045004 Z M55.587542,62.264636 C54.794262,62.264636 54.278482,62.668676 54.278482,63.392396 C54.278482,64.116856 54.794262,64.520896 55.587542,64.520896 C56.380822,64.520896 56.896602,64.116856 56.896602,63.392396 C56.896602,62.668676 56.380822,62.264636 55.587542,62.264636 Z M23.2804,62.264636 C22.48712,62.264636 21.97134,62.668676 21.97134,63.392396 C21.97134,64.116856 22.48712,64.520896 23.2804,64.520896 C24.07368,64.520896 24.58946,64.116856 24.58946,63.392396 C24.58946,62.668676 24.07368,62.264636 23.2804,62.264636 Z M45.566462,62.345296 L44.604462,62.345296 L44.604462,64.440236 L45.566462,64.440236 C46.333102,64.440236 46.875522,64.082076 46.875522,63.392396 C46.875522,62.703456 46.333102,62.345296 45.566462,62.345296 Z M37.048544,62.341374 L36.298184,63.723694 L37.799644,63.723694 L37.048544,62.341374 Z M41.772852,62.345222 L40.309872,62.345222 L40.309872,63.407862 L41.772852,63.407862 C42.207972,63.407862 42.497312,63.242102 42.497312,62.876542 C42.497312,62.510982 42.207972,62.345222 41.772852,62.345222 Z M28.145678,62.345222 L26.682698,62.345222 L26.682698,63.407862 L28.145678,63.407862 C28.580798,63.407862 28.870138,63.242102 28.870138,62.876542 C28.870138,62.510982 28.580798,62.345222 28.145678,62.345222 Z M81.23128,62.345222 L79.7683,62.345222 L79.7683,63.407862 L81.23128,63.407862 C81.6664,63.407862 81.95574,63.242102 81.95574,62.876542 C81.95574,62.510982 81.6664,62.345222 81.23128,62.345222 Z M96.49304,45.374358 C99.1526,45.374358 100.79392,46.759638 100.79392,49.043278 C100.79392,51.326918 99.1526,52.712198 96.49304,52.712198 C93.832,52.712198 92.19142,51.326918 92.19142,49.043278 C92.19142,46.759638 93.832,45.374358 96.49304,45.374358 Z M16.06392,45.374358 C18.72348,45.374358 20.3648,46.759638 20.3648,49.043278 C20.3648,51.326918 18.72348,52.712198 16.06392,52.712198 C13.40362,52.712198 11.7623,51.326918 11.7623,49.043278 C11.7623,46.759638 13.40362,45.374358 16.06392,45.374358 Z M4.3401,45.374506 C6.04136,45.374506 7.2076,46.007206 7.90024,46.748686 L6.93158,47.440586 C6.31812,46.748686 5.50708,46.413466 4.35046,46.413466 C2.40278,46.413466 1.20546,47.302946 1.20546,49.043426 C1.20546,50.783166 2.42276,51.673386 4.40966,51.673386 C5.62548,51.673386 6.61486,51.356666 7.11954,50.565606 L7.11954,49.774546 L4.23132,49.774546 L4.23132,48.756306 L8.2658,48.756306 L8.2658,50.951146 C7.6331,51.969386 6.25892,52.711606 4.36008,52.711606 C1.63096,52.711606 0,51.327066 0,49.043426 C0,46.759046 1.63096,45.374506 4.3401,45.374506 Z M56.039904,45.58252 C57.652364,45.58252 58.838584,46.3536 58.838584,47.78772 C58.838584,48.9843 58.008304,49.71542 56.801364,49.93298 L59.046524,52.50448 L57.582804,52.50448 L55.437544,49.99292 L52.519724,49.99292 L52.519724,52.50448 L51.333504,52.50448 L51.333504,45.58252 L56.039904,45.58252 Z M25.541618,45.58252 L25.541618,51.4559 L30.644658,51.4559 L30.644658,52.50448 L24.355398,52.50448 L24.355398,45.58252 L25.541618,45.58252 Z M64.074972,45.58215 L64.074972,48.45927 L69.305292,48.45927 L69.305292,45.58215 L70.492252,45.58215 L70.492252,52.50411 L69.305292,52.50411 L69.305292,49.52783 L64.074972,49.52783 L64.074972,52.50411 L62.888012,52.50411 L62.888012,45.58215 L64.074972,45.58215 Z M37.788692,45.581558 C40.360192,45.581558 42.001512,46.906898 42.001512,49.043278 C42.001512,51.178178 40.360192,52.503518 37.788692,52.503518 L34.278872,52.503518 L34.278872,45.581558 L37.788692,45.581558 Z M81.871898,45.58215 L87.054118,50.83245 L87.054118,45.58215 L88.210738,45.58215 L88.210738,52.50411 L87.162158,52.50411 L81.753498,47.04661 L81.753498,52.50411 L80.606498,52.50411 L80.606498,45.58215 L81.871898,45.58215 Z M76.14378,45.581928 L76.14378,52.503888 L74.95682,52.503888 L74.95682,45.581928 L76.14378,45.581928 Z M96.49304,46.422198 C94.61344,46.422198 93.39762,47.362738 93.39762,49.043278 C93.39762,50.723818 94.60382,51.663618 96.49304,51.663618 C98.37116,51.663618 99.57736,50.723818 99.57736,49.043278 C99.57736,47.362738 98.37116,46.422198 96.49304,46.422198 Z M16.06392,46.422198 C14.18506,46.422198 12.9685,47.362738 12.9685,49.043278 C12.9685,50.723818 14.1747,51.663618 16.06392,51.663618 C17.94204,51.663618 19.14824,50.723818 19.14824,49.043278 C19.14824,47.362738 17.94204,46.422198 16.06392,46.422198 Z M37.700632,46.620518 L35.465092,46.620518 L35.465092,51.465298 L37.700632,51.465298 C39.519552,51.465298 40.784952,50.644638 40.784952,49.043278 C40.784952,47.440438 39.519552,46.620518 37.700632,46.620518 Z M55.961464,46.62074 L52.510104,46.62074 L52.510104,48.97468 L55.961464,48.97468 C56.949364,48.97468 57.622764,48.65796 57.622764,47.79734 C57.622764,46.93672 56.949364,46.62074 55.961464,46.62074 Z M38.07633,21.365058 C37.96681,21.839398 37.83657,22.421778 36.95597,23.605778 C36.33437,24.353918 35.91479,25.306298 35.83117,25.512018 C35.11263,27.286538 34.86325,29.465838 35.21031,29.976438 C35.55293,30.481118 36.31365,30.578058 36.54897,31.545238 C36.5483583,31.5439252 36.5492628,31.5454563 36.550157,31.5469745 L36.5605686,31.5624665 C37.112188,31.5477181 37.6638022,31.5340527 38.2154889,31.5214761 C38.0950565,31.1961855 37.8144099,30.742356 37.164058,30.394464 C36.021498,29.781004 35.898658,28.352064 35.898658,28.229224 C35.898658,28.150784 35.841678,26.490964 36.293078,25.783524 C36.283458,25.866404 36.274578,25.947804 36.267918,26.027724 C36.267178,26.073604 36.265698,26.120224 36.266438,26.167584 C36.266438,26.244544 36.256818,26.319284 36.241278,26.391064 C36.190958,27.386364 36.321198,28.023504 36.321198,28.096764 C36.321198,28.219604 36.606838,29.689244 37.750138,30.301964 C38.4346573,30.6688132 38.7387842,31.1672347 38.872639,31.508174 C44.7297032,31.3826757 50.5996309,31.3812992 56.5743144,31.5097264 C56.5008625,30.4603936 57.4361771,29.8471717 57.341564,29.12825 C57.178024,27.88135 57.137324,27.20869 57.014484,26.06539 C56.910144,25.08489 57.013744,24.32935 57.069244,23.78101 C57.066284,25.57625 57.832924,27.54687 57.869924,29.16895 C57.9630545,29.881809 57.1487467,30.4907435 57.2213899,31.5241014 C57.4918202,31.5303633 57.7620415,31.5368479 58.0324915,31.543598 L58.0491698,31.4770207 C58.158043,31.1299327 58.6546755,30.6266113 59.026248,30.65968 C59.478388,30.69964 59.718148,31.17842 59.890568,31.67052 L59.859,31.585148 C60.0006765,31.5972724 60.1396062,31.6014073 60.2786021,31.605612 C60.3774332,31.1170212 60.8780684,30.6112248 61.311886,30.53166 C61.2100739,30.2940601 61.050358,29.998552 60.822746,29.77094 C60.8237915,29.7713528 60.8248362,29.7717657 60.82588,29.7721789 C61.986766,30.229074 62.088886,30.933554 62.088886,30.933554 L62.088886,30.933554 L62.1043129,30.9583552 C62.1261725,30.9906059 62.148957,31.0266458 62.17221,31.0654984 L62.1937463,31.1015803 C62.1977071,31.1086364 62.2016396,31.1157315 62.2055444,31.1228643 C62.3285265,31.3375752 62.4594216,31.6190891 62.531406,31.82444 L62.996194,31.6964329 C63.1023132,31.7003139 63.2084747,31.7042355 63.314679,31.7081976 C63.3551372,31.0978466 62.8746606,30.4203943 62.280028,29.86344 C61.899668,29.63108 62.306668,26.1072 63.623128,24.6383 C63.000788,26.11682 62.536808,29.74652 62.895708,29.96556 C63.4834246,30.5166691 64.2692989,31.1497952 64.3023996,31.7470141 C68.9217913,31.9289529 73.6273635,32.188513 78.457316,32.527736 C74.003996,32.527736 33.808676,32.512196 16.901156,32.527736 C21.7294593,32.1885865 26.4897626,31.9242576 31.2312391,31.738351 C31.2431847,31.2605596 31.7526083,30.6071177 31.70567,29.934776 C31.70345,29.903696 31.69827,29.872616 31.69383,29.842276 C31.72565,29.948096 31.75007,30.055396 31.77375,30.169356 C31.9345182,30.9351032 31.6367285,31.3132732 31.6456733,31.7221472 L33.2120807,31.6673056 C33.3205612,31.4931045 33.6007641,31.089348 33.885044,31.057504 C33.9274517,31.0527794 33.9678364,31.0525254 34.0062585,31.0560823 L34.115697,31.0775254 C34.4080494,31.1665132 34.5642457,31.4810215 34.6207921,31.6215224 L35.0557715,31.6073232 C35.0568267,31.6039033 35.0579038,31.6004469 35.0590031,31.5969557 C35.072256,31.5543767 35.0891647,31.5059492 35.1099014,31.4553101 C35.1153236,31.4425984 35.1206353,31.430084 35.1261826,31.417484 C35.1347465,31.3974642 35.144216,31.3770649 35.1543162,31.3566318 C35.1614757,31.3427466 35.1685626,31.3290006 35.1759429,31.315297 C35.1815145,31.3043264 35.1878742,31.2928946 35.1944435,31.281525 C35.2040708,31.2655137 35.2136341,31.2498234 35.2236165,31.2343443 C35.2345473,31.2167118 35.2466267,31.199082 35.2592857,31.1818714 C35.2691328,31.1691736 35.2787392,31.1567935 35.2886652,31.144694 C35.3003048,31.1297983 35.3130157,31.1152851 35.3262272,31.1013002 C35.3383771,31.08914 35.3506121,31.0770549 35.3632587,31.0654668 C35.3776987,31.0515445 35.3926621,31.0389709 35.4081771,31.0271539 C35.4433237,31.0010984 35.4810967,30.9783234 35.52185,30.960638 L35.444297,31.0017107 C35.4629095,30.9896365 35.4822515,30.9786487 35.5023462,30.968908 L35.52185,30.960638 C35.29911,30.486298 34.65679,30.031938 34.59759,29.895038 C34.02631,29.037378 34.61831,25.821338 36.07833,23.278698 C36.58079,22.688918 37.36223,22.207178 38.04673,21.395398 C38.05709,21.383558 38.06597,21.375418 38.07633,21.365058 Z M60.9091634,19.6244772 C61.1040844,19.1664449 62.8221806,19.1465345 63.5943366,19.2035267 C63.6515633,19.2078465 63.7042616,19.2124447 63.751148,19.217504 C63.751148,19.217504 63.549128,22.206364 62.075788,23.841764 C60.859228,25.193004 60.415228,27.593564 60.333088,29.005484 C60.2531601,28.6713382 60.1891017,28.3371793 60.1385477,28.007639 C60.1280325,27.936254 60.1178484,27.8656303 60.1082688,27.795268 C59.8242595,25.7264034 60.0599976,23.8816711 60.217648,23.431064 C60.2193227,23.426275 60.2209925,23.421492 60.2226573,23.4167149 C60.3511065,23.027836 60.4526832,22.6891895 60.5331942,22.3896948 C60.9179227,20.8522435 60.7207868,20.1321489 60.891788,19.694804 L60.891788,19.694804 L60.9091634,19.6244772 Z M30.706818,22.214578 C31.197438,22.697058 31.801278,23.790038 31.228518,25.208618 C30.628378,26.694538 30.248018,27.137798 30.361238,28.247798 C30.268738,28.176018 30.173278,28.102018 30.071898,28.025798 C29.346698,27.331678 29.673778,26.738938 30.316838,25.146458 C30.882938,23.744898 30.926598,22.921278 30.706818,22.214578 Z M39.308948,20.057034 C40.524768,21.226234 43.220588,23.776274 49.809548,23.574994 C54.112648,23.019254 54.853388,22.923794 56.209808,22.738794 C56.240888,22.305894 56.354848,21.675414 56.687848,20.919134 C56.810688,22.185274 56.851388,22.634454 57.096328,23.206474 C57.0975613,23.223494 57.0982191,23.242734 57.098548,23.2638651 L57.098548,23.410714 C55.279628,23.638634 54.293208,23.999014 49.990848,24.554014 C43.387088,24.756034 40.983568,21.977334 39.308948,20.057034 Z M72.06712,13.038652 C74.46176,12.528052 75.90254,15.460672 80.09168,14.891612 C80.26114,14.868672 80.35734,14.840552 80.55788,14.834632 C74.80216,16.268012 74.84656,13.065292 72.28838,13.874852 C71.17098,16.012712 70.96748,15.781832 70.06616,16.224352 C69.5156,16.494452 67.51538,18.550172 66.63552,19.363432 C66.42166,21.611552 65.04378,22.824412 64.25198,23.700572 L64.258,23.692148 L64.2756857,23.6707082 C64.437183,23.4645694 65.3765706,22.2219989 65.6244687,20.9047366 L65.65502,20.716152 C65.20584,21.043232 64.8388,21.206032 64.31488,21.379192 C64.98458,20.819012 65.68462,19.838512 65.96138,19.450012 C66.36986,18.878732 69.05754,16.156272 69.90262,15.733732 C70.80098,15.284552 70.94972,15.175772 72.06712,13.038652 Z M74.360898,0.000148 C74.778998,0.032708 75.581158,1.865688 74.545158,2.675248 C74.497798,2.704108 74.455618,2.734448 74.413438,2.764048 C74.696858,2.300068 74.582158,1.658488 74.429718,1.164168 C74.306878,0.766048 74.032338,0.845228 73.815518,0.995448 C73.363378,1.311428 72.798758,1.690308 72.592298,2.726308 C72.349578,3.937688 72.749178,4.977388 73.380398,4.880448 C73.851778,4.807928 73.557258,4.173748 73.769638,3.576568 C74.286898,3.655008 74.669478,3.923628 74.986938,4.259588 C74.984718,4.252928 74.981758,4.246268 74.978798,4.239608 C76.537978,6.065928 78.481218,6.347868 79.322598,5.237868 C79.807298,4.599248 81.244378,1.984828 81.823058,0.087468 C82.504598,3.182888 81.635838,6.723788 81.569978,6.985008 C81.746838,7.039768 81.908158,7.100448 82.053198,7.166308 C82.150138,7.143368 85.097558,6.410028 89.445058,0.056388 C88.412758,4.897468 86.035138,7.698368 85.039098,8.803928 C84.680198,9.202788 84.277638,9.694888 84.454498,10.855208 C84.581778,11.537488 84.480398,12.276008 84.362738,12.836188 C84.298358,13.576188 83.932058,14.370948 83.157278,14.313968 C83.032218,14.638088 82.600798,15.304828 81.214778,14.957768 C82.521618,14.978488 82.654078,14.305088 82.694778,14.222948 C82.960438,14.202228 83.284558,13.976528 83.236458,13.814468 C82.235978,13.733068 80.081838,12.436588 79.827278,13.366028 C78.550038,12.742208 76.611238,13.043388 74.935878,12.038468 C73.006698,10.880368 74.295778,8.766928 72.301478,7.383868 C72.784698,8.413208 72.140898,8.895688 71.768678,10.693888 C71.022758,9.363368 70.503278,6.996108 71.022018,5.277828 C70.948018,5.092088 70.029678,6.174708 69.878718,7.360928 C69.552378,9.933908 70.164358,9.893208 70.157698,12.519468 C69.265998,8.422828 66.243838,8.422828 63.875838,6.054088 C64.610658,7.565168 65.794658,8.708468 67.102238,10.750128 C68.409078,12.792528 67.509978,14.834928 65.917498,17.202928 C66.162438,17.979188 65.958198,18.708088 65.591158,18.509768 C65.059838,18.224128 64.590678,18.142728 64.161478,18.060588 C63.303818,17.897048 59.710378,18.183428 58.525638,19.286028 C59.615658,16.482168 63.426658,17.734248 64.682438,16.570228 C63.314178,16.580588 62.007338,16.417048 61.466398,16.018928 C61.131178,15.047308 61.624018,12.168708 60.445198,11.404288 C59.417338,14.424228 57.361618,14.854908 56.320438,19.633088 C55.830558,16.753748 57.882578,13.349008 57.645038,12.740728 C56.349298,14.837888 55.269638,15.177548 54.437138,17.120048 C49.925358,19.343748 41.291778,15.936788 38.777998,12.984928 C39.015538,14.701728 39.244198,16.770768 40.475558,18.469068 C39.112478,17.915548 37.774558,15.132408 37.514078,13.201008 C37.300218,11.608528 37.667258,10.842628 36.687498,10.658368 C35.706998,10.474848 36.068118,12.041428 36.197618,12.924988 C36.657158,16.057408 39.331518,17.530008 34.186298,21.449788 C35.248198,16.876588 32.174978,16.192088 33.794098,10.579928 C32.686318,10.790828 31.450518,11.504928 30.580278,13.062628 C30.048218,11.791308 30.496658,9.912448 31.269218,8.475368 C28.915278,10.587328 27.689838,14.181508 29.650098,19.898748 C29.904658,20.640968 30.097798,21.048708 30.251718,21.335088 C29.649358,20.416008 28.500878,18.569708 27.951058,14.886728 L27.951,14.887148 L27.8738792,15.0471577 C27.5306359,15.8421258 27.4187272,17.2693777 27.3026755,18.6626358 L27.277658,18.960428 C27.191818,19.963128 27.243618,22.716668 25.160518,22.757368 C25.977478,21.941148 25.012518,20.919208 26.511758,18.929348 C26.804798,17.597348 27.003858,13.822608 27.621758,12.170188 C28.239658,10.517768 30.091878,8.593028 32.912758,6.555808 C34.567398,5.360708 37.782698,5.014388 39.350758,4.873788 C44.305058,4.429788 47.520358,6.327148 50.892538,5.912008 C52.742538,5.665588 58.770578,2.021828 61.162998,2.420688 C63.480678,2.806968 65.883458,2.421428 69.968998,3.085208 C70.202838,3.122948 71.372778,3.299068 71.857478,3.381208 C71.828618,3.232468 71.814558,3.074848 71.818998,2.909828 C71.866358,1.005808 74.007178,0.578828 74.360898,0.000148 Z M83.721158,11.746908 C83.516178,11.751348 83.240898,11.807588 82.876078,11.945228 C82.842778,12.011088 82.725858,12.237528 83.297138,12.660808 C83.513218,12.820648 83.753718,12.984188 83.848438,12.972348 C84.094858,12.942008 84.043058,12.553508 84.109658,12.237528 C84.145178,12.066588 84.290958,11.736548 83.721158,11.746908 Z M78.962958,8.736588 C78.347278,8.659628 78.282158,9.162828 77.795978,9.390008 C78.347278,9.759268 78.940018,9.801448 79.139078,9.464008 C79.210118,9.458088 79.345538,9.491388 79.453578,9.531348 C79.583078,9.578708 79.583818,9.430708 79.564578,9.347828 C79.509078,9.098448 79.348498,8.785428 78.962958,8.736588 Z M86.243818,6.320488 C84.926618,7.239568 83.946858,7.545928 82.801338,7.833788 C83.194278,8.230428 83.733738,8.881628 84.130378,9.414428 C84.498158,8.311828 85.508998,7.912968 86.243818,6.320488 Z M81.088238,4.217408 C79.944938,6.259808 79.087278,6.586148 78.003178,6.405588 C78.163018,6.505488 78.322118,6.590588 78.476778,6.663108 C78.959258,6.887328 79.403998,6.987228 79.750318,7.030888 C80.079618,7.071588 80.485878,7.147808 80.883998,7.024968 C80.900278,6.928768 81.292478,5.524248 81.088238,4.217408 Z" fill="#F8F7F1" fill-rule="nonzero"></path>
            <g filter="url(#filter-1)" id="TM">
                <g transform="translate(102.000000, 45.000000)">
                    <g id="path-1-link" fill="#000000" fill-rule="nonzero">
                        <path d="M1.300595,2.25 L1.300595,0.3375 L2.25,0.3375 L2.25,0 L0,0 L0,0.3375 L0.943452,0.3375 L0.943452,2.25 L1.300595,2.25 Z M3.382838,2.25 L3.382838,0.5239286 L4.481848,1.8225 L4.50495,1.8225 L5.60396,0.5239286 L5.60396,2.25 L6,2.25 L6,0 L5.574257,0 L4.50165,1.2889286 L3.429043,0 L3,0 L3,2.25 L3.382838,2.25 Z" id="path-1"></path>
                    </g>
                    <g id="path-1-link" fill="#000000" fill-rule="nonzero">
                        <path d="M1.300595,2.25 L1.300595,0.3375 L2.25,0.3375 L2.25,0 L0,0 L0,0.3375 L0.943452,0.3375 L0.943452,2.25 L1.300595,2.25 Z M3.382838,2.25 L3.382838,0.5239286 L4.481848,1.8225 L4.50495,1.8225 L5.60396,0.5239286 L5.60396,2.25 L6,2.25 L6,0 L5.574257,0 L4.50165,1.2889286 L3.429043,0 L3,0 L3,2.25 L3.382838,2.25 Z" id="path-1"></path>
                    </g>
                    <g id="path-1-link" fill="#FFFFFF" fill-rule="nonzero">
                        <path d="M1.300595,2.25 L1.300595,0.3375 L2.25,0.3375 L2.25,0 L0,0 L0,0.3375 L0.943452,0.3375 L0.943452,2.25 L1.300595,2.25 Z M3.382838,2.25 L3.382838,0.5239286 L4.481848,1.8225 L4.50495,1.8225 L5.60396,0.5239286 L5.60396,2.25 L6,2.25 L6,0 L5.574257,0 L4.50165,1.2889286 L3.429043,0 L3,0 L3,2.25 L3.382838,2.25 Z" id="path-1"></path>
                    </g>
                </g>
            </g>
        </g>
    </g>
</svg>